<?xml version="1.0" encoding="utf-8"?>
<!-- Generator: Adobe Illustrator 16.0.4, SVG Export Plug-In . SVG Version: 6.00 Build 0)  -->
<!DOCTYPE svg PUBLIC "-//W3C//DTD SVG 1.1//EN" "http://www.w3.org/Graphics/SVG/1.1/DTD/svg11.dtd">
<svg version="1.1" xmlns="http://www.w3.org/2000/svg" xmlns:xlink="http://www.w3.org/1999/xlink" x="0px" y="0px"
	 width="122.031px" height="134.912px" viewBox="0 0 122.031 134.912" enable-background="new 0 0 122.031 134.912"
	 xml:space="preserve">
<g id="Layer_1">
</g>
<g id="Layer_5">
	<ellipse fill="#50B955" cx="61.016" cy="67.456" rx="61.016" ry="67.456"/>
	<path fill="#E4E4E6" d="M71.157,76.559c3.797-0.876,4.107-3.912,4.107-3.912l-1.592,0.78l0.676-0.544"/>
</g>
<g id="Layer_4">
	<path fill="#FFFFFF" d="M38.312,103.427c0.423-1.699,1.3-3.389,2.731-4.998c-6.124-10.78-13.599-23.226-9.118-36.051
		c0.452-1.294-0.756-4.658-0.817-6.1c-0.123-2.921,1.079-6.287,0.567-9.111c-0.281-1.552-2.469-2.955-3.261-4.361
		c-1.492-2.648-2.226-5.59-2.159-8.626c0.286-12.888,8.617-20.613,21.008-22.094c3.499-0.419,7.031-0.424,10.545-0.212
		c8.417,0.508,16.945,2.371,24.025,7.154c4.08,2.758,9.268,7.154,11.656,11.538c0.004,0.008,5.642,10.36,0,22.949
		c0,0,5.116,3.914,0,12.355c0,0-0.432,10.703-7.066,13.172c-0.829,4.809-1.355,9.71-1.577,14.582
		c-0.159,3.49-0.302,7.136,0.285,10.596c0.657,3.871,2.149,6.864-1.056,10.008c-2.297,2.255-5.67,4.086-8.652,5.266
		c-7.149,2.83-17.304,2.714-24.697,0.845C43.674,118.556,36.369,111.245,38.312,103.427z"/>
	<path fill="#E4E4E6" d="M59.632,86.88c3.797-0.875,4.107-3.911,4.107-3.911l-1.592,0.78l0.676-0.544"/>
	<g>
		<g>
			<path fill="#E4E4E6" d="M62.483,84.254c0.018-0.156,0.035-0.28-0.018-0.433c-0.146-0.43-0.658-0.475-0.914-0.119
				c-0.054,0.074-0.084,0.155-0.119,0.24c0.311,0.084,0.621,0.168,0.932,0.252c-0.189,0.108-0.199,0.122-0.029,0.043
				c0.09-0.046,0.164-0.107,0.242-0.17c0.506-0.399-0.207-1.102-0.707-0.707c-0.291,0.229-0.541,0.337-0.506,0.834
				c0.029,0.443,0.717,0.75,0.932,0.252c0.035-0.083,0.069-0.17,0.119-0.24c-0.305-0.039-0.609-0.079-0.913-0.119
				c-0.005,0.056-0.011,0.111-0.019,0.167C61.412,84.895,62.413,84.888,62.483,84.254L62.483,84.254z"/>
		</g>
	</g>
	<g>
		<g>
			<path fill="#E4E4E6" d="M43.793,84.927c0.215,0.958,0.963,1.523,1.431,2.34c0.32,0.56,1.185,0.057,0.863-0.504
				c-0.416-0.727-1.141-1.259-1.331-2.102C44.616,84.033,43.652,84.299,43.793,84.927L43.793,84.927z"/>
		</g>
	</g>
	<g>
		<g>
			<path fill="#E4E4E6" d="M44.989,85.042c-0.078-0.093-0.129-0.207-0.172-0.319c-0.225-0.598-1.191-0.339-0.964,0.266
				c0.106,0.283,0.233,0.528,0.429,0.761C44.698,86.243,45.402,85.532,44.989,85.042L44.989,85.042z"/>
		</g>
	</g>
	<g>
		<g>
			<path fill="#E4E4E6" d="M44.264,85.887c0.26,0.572,0.572,1.113,1.039,1.542c0.474,0.436,1.183-0.27,0.707-0.707
				c-0.406-0.373-0.656-0.842-0.882-1.339C44.86,84.796,43.999,85.305,44.264,85.887L44.264,85.887z"/>
		</g>
	</g>
	<g>
		<g>
			<path fill="#E4E4E6" d="M46.364,94.17c1.523,0.875,3.165,0.92,4.875,1.089c1.854,0.184,3.45,0.095,5.115-0.789
				c0.57-0.303,0.064-1.166-0.505-0.863c-2.356,1.251-6.681,1.021-8.979-0.3C46.309,92.985,45.805,93.849,46.364,94.17L46.364,94.17
				z"/>
		</g>
	</g>
</g>
<g id="Layer_2">
	<g>
		<path d="M35.451,40.524c-0.42,2.83-0.875,5.652-1.341,8.473l0.01-0.079c-0.091,3.042-0.149,6.091-0.275,9.139l-0.189-0.594
			l0.31,0.462c0.099,0.153,0.212,0.319,0.295,0.465l0.463,0.846c0.303,0.566,0.588,1.124,0.873,1.697l0.125,0.253l-0.072,0.38
			l-0.226,1.186c-0.069,0.396-0.167,0.787-0.206,1.187c-0.098,0.797-0.236,1.587-0.265,2.389c-0.072,0.797-0.084,1.596-0.078,2.394
			c-0.013,0.399,0.02,0.798,0.041,1.195c0.029,0.397,0.028,0.796,0.084,1.191l0.133,1.185l0.194,1.176
			c0.055,0.393,0.156,0.776,0.23,1.166c0.072,0.39,0.182,0.77,0.279,1.153c0.196,0.766,0.443,1.515,0.708,2.252
			c0.143,0.363,0.278,0.732,0.438,1.082c0.146,0.347,0.332,0.72,0.476,0.987l0.086,0.159l0.071,0.302l0.396,1.673
			c0.099,0.558,0.352,1.113,0.524,1.67c0.189,0.556,0.37,1.113,0.613,1.662c0.229,0.55,0.446,1.104,0.685,1.651l0.768,1.629
			c0.253,0.544,0.548,1.071,0.82,1.607c0.556,1.062,1.164,2.129,1.77,3.123l0.087,0.144l0.087,0.258l0.578,1.716
			c0.214,0.565,0.5,1.109,0.733,1.671c0.517,1.126,1.101,1.973,1.901,2.694c0.794,0.691,1.737,1.157,2.794,1.359l0.961,0.19
			c0.318,0.061,0.578,0.055,0.869,0.089c0.289,0.021,0.556,0.06,0.862,0.07L53,101.795c0.615,0.027,1.269-0.009,1.905-0.004
			l0.24-0.001c0.027-0.002-0.186,0.012-0.088,0.006l0.016-0.002l0.03-0.002l0.061-0.006l0.122-0.011l0.488-0.042l0.976-0.086
			c0.695-0.02,1.195-0.204,1.754-0.33l0.83-0.195c0.277-0.087,0.551-0.221,0.827-0.327l0.829-0.336l0.416-0.169l0.385-0.232
			l1.521-0.908l0.787-0.583c0.267-0.196,0.442-0.379,0.675-0.563l0.164-0.138l0.082-0.069l0.042-0.034
			c-0.024,0.026,0.069-0.07-0.052,0.057l0.01-0.012l0.021-0.023c0.129-0.143,0.163-0.202,0.257-0.315l0.229-0.27
			c0.041-0.049,0.187-0.177,0.289-0.249l0.176-0.117l0.09-0.051c-0.016,0.006,0.098-0.048-0.022,0.007l0.014-0.006l0.443-0.21
			c1.169-0.565,2.427-1.078,3.383-1.77c0.506-0.342,1.05-0.607,1.532-1.01l1.465-1.176c0.515-0.364,0.914-0.858,1.379-1.282
			c0.45-0.439,0.914-0.87,1.299-1.373c0.402-0.487,0.819-0.966,1.214-1.462l1.089-1.567c0.379-0.514,0.666-1.087,1.006-1.629
			c0.342-0.542,0.641-1.108,0.92-1.688c0.602-1.137,1.088-2.331,1.566-3.531c0.465-1.206,0.881-2.438,1.219-3.692
			c0.363-1.249,0.656-2.521,0.857-3.814c-0.086,2.62-0.547,5.231-1.246,7.78c-0.359,1.271-0.775,2.534-1.292,3.76
			c-0.238,0.622-0.499,1.235-0.806,1.828c-0.309,0.592-0.551,1.222-0.916,1.784l-1.039,1.725c-0.381,0.553-0.789,1.09-1.184,1.637
			c-0.379,0.562-0.841,1.056-1.293,1.561c-0.468,0.488-0.87,1.047-1.396,1.479l-1.529,1.353c-0.504,0.458-1.121,0.814-1.682,1.226
			c-1.151,0.873-2.309,1.395-3.461,2.024l-0.433,0.229l-0.014,0.007c-0.128,0.062-0.023,0.015-0.046,0.026l0.042-0.013
			c0.028-0.01,0.056-0.023,0.081-0.039c0.041-0.019,0.115-0.104,0.104-0.09l-0.08,0.11c-0.105,0.146-0.258,0.355-0.344,0.458
			l-0.02,0.024l-0.009,0.012l-0.073,0.078l-0.051,0.047l-0.101,0.094l-0.201,0.188c-0.265,0.24-0.551,0.522-0.806,0.719
			l-0.771,0.605c-0.634,0.432-1.199,0.774-1.806,1.163l-0.449,0.282l-0.484,0.219l-0.973,0.431
			c-0.329,0.138-0.644,0.297-0.985,0.415l-1.068,0.29c-0.71,0.184-1.459,0.411-2.078,0.44l-0.973,0.113l-0.487,0.057l-0.347,0.035
			l-0.25,0.008c-0.67,0.021-1.322,0.054-2.013,0.034c-0.675-0.002-1.362-0.012-2.115-0.094c-0.357-0.037-0.756-0.054-1.079-0.112
			l-0.963-0.182c-1.51-0.271-3-0.976-4.179-1.999c-1.17-1.003-2.076-2.374-2.649-3.614c-0.283-0.637-0.584-1.265-0.83-1.92
			l-0.652-2.006l0.174,0.401c-0.342-0.569-0.651-1.104-0.958-1.662c-0.299-0.557-0.614-1.104-0.893-1.673
			c-0.281-0.566-0.583-1.12-0.846-1.697l-0.794-1.728c-0.249-0.586-0.478-1.184-0.717-1.774c-0.253-0.584-0.446-1.202-0.633-1.822
			c-0.176-0.626-0.421-1.213-0.529-1.876l-0.397-1.943l0.157,0.46c-0.238-0.468-0.405-0.847-0.573-1.268
			c-0.173-0.411-0.312-0.825-0.461-1.238c-0.273-0.832-0.522-1.668-0.714-2.516c-0.095-0.424-0.202-0.845-0.27-1.273
			c-0.07-0.428-0.168-0.852-0.214-1.282l-0.151-1.29l-0.084-1.294c-0.039-0.431-0.02-0.863-0.03-1.294
			c-0.002-0.432-0.016-0.863,0.017-1.293c0.034-0.862,0.087-1.721,0.204-2.573c0.074-0.857,0.258-1.698,0.404-2.543
			c0.064-0.424,0.198-0.834,0.298-1.249l0.323-1.242l0.053,0.633c-0.235-0.563-0.482-1.137-0.734-1.69l-0.384-0.826
			c-0.064-0.131-0.125-0.224-0.186-0.34l-0.178-0.337l-0.208-0.395l0.02-0.2c0.295-3.015,0.657-6.028,0.986-9.049l0.008-0.07
			l0.002-0.009C33.925,46.037,34.671,43.277,35.451,40.524z"/>
	</g>
	<path d="M55.441,54.96c0,0,8.343-5.222,13.806-2.761c0,0,3.361,2.521,3.842,2.761c0,0-2.281,0.961-3.481,0.301
		C69.607,55.261,68.887,52.319,55.441,54.96z"/>
	<path d="M33.355,53.516c0,0,4.917-1.196,9.12,2.825c0,0-8.334-1.671-9.12-1.496V53.516z"/>
	<g>
		<path d="M45.656,60.124c0.104,0.961,0.171,1.926,0.191,2.887c0.046,0.964,0.01,1.923,0.009,2.888
			c-0.057,0.961-0.076,1.924-0.178,2.889c-0.101,0.963-0.206,1.929-0.401,2.908l-0.144,0.729l-0.243,0.767l-0.436,1.324
			c-0.246,0.818-0.426,1.674-0.375,2.453c0.015,0.193,0.02,0.391,0.072,0.562l0.049,0.271l0.091,0.243
			c0.109,0.333,0.306,0.604,0.553,0.844c0.256,0.23,0.564,0.436,0.939,0.579c0.343,0.193,0.791,0.229,1.197,0.35l-0.083-0.003
			c0.028,0.009,0.18-0.014,0.268-0.017l0.334-0.057c0.225-0.049,0.457-0.115,0.686-0.187l0.682-0.275l0.67-0.345
			c0.232-0.105,0.43-0.27,0.649-0.404c0.208-0.149,0.449-0.264,0.644-0.436c0.396-0.334,0.85-0.626,1.247-0.984
			c-0.26,0.471-0.59,0.893-0.908,1.335c-0.152,0.229-0.352,0.414-0.538,0.616c-0.195,0.191-0.368,0.412-0.587,0.582l-0.649,0.532
			c-0.235,0.156-0.479,0.303-0.723,0.455c-0.255,0.134-0.517,0.263-0.793,0.376l-0.431,0.146c-0.173,0.034-0.279,0.076-0.516,0.097
			l-0.04,0.004l-0.043-0.007c-0.525-0.073-1.054-0.055-1.593-0.248c-0.539-0.123-1.08-0.403-1.553-0.773
			c-0.473-0.378-0.883-0.881-1.125-1.434c-0.14-0.275-0.243-0.555-0.299-0.842c-0.083-0.287-0.104-0.568-0.132-0.851
			c-0.05-0.563-0.009-1.106,0.055-1.64c0.087-0.524,0.179-1.045,0.351-1.542c0.084-0.254,0.165-0.483,0.294-0.79l0.2-0.592
			l0.208-0.591l0.148-0.672c0.099-0.449,0.23-0.886,0.321-1.345l0.263-1.383c0.197-0.919,0.344-1.859,0.526-2.79
			C44.864,63.885,45.214,62.007,45.656,60.124z"/>
	</g>
	<g>
		<path d="M51.137,78.15c0,0,0.388-0.044,0.918-0.045c0.532-0.011,1.216,0.028,1.856,0.004c0.159-0.005,0.322,0.003,0.47-0.022
			c0.154-0.015,0.301-0.021,0.438-0.052c0.146-0.017,0.262-0.062,0.393-0.089c0.125-0.033,0.221-0.094,0.338-0.131
			c0.101-0.053,0.183-0.12,0.274-0.172c0.095-0.05,0.143-0.124,0.204-0.175c0.123-0.112,0.193-0.177,0.193-0.177
			s0.003,0.091-0.015,0.265c-0.016,0.082-0.008,0.203-0.07,0.309c-0.052,0.108-0.104,0.252-0.201,0.375
			c-0.103,0.111-0.212,0.264-0.363,0.36c-0.148,0.095-0.309,0.224-0.491,0.275c-0.358,0.166-0.758,0.207-1.145,0.232
			c-0.389-0.001-0.767-0.038-1.108-0.126c-0.341-0.083-0.649-0.193-0.9-0.319C51.421,78.425,51.137,78.15,51.137,78.15z"/>
	</g>
	<g>
		<path d="M44.005,72.856c0,0-0.274,0.495-0.699,1.181c-0.412,0.688-1,1.588-1.341,2.49c-0.177,0.448-0.235,0.883-0.137,1.203
			c0.053,0.159,0.152,0.305,0.276,0.441c0.137,0.125,0.294,0.238,0.453,0.336c0.331,0.175,0.643,0.311,0.867,0.394
			c0.224,0.085,0.356,0.143,0.356,0.143s-0.137,0.026-0.383,0.055c-0.246,0.025-0.603,0.035-1.042-0.053
			c-0.219-0.053-0.46-0.13-0.701-0.278c-0.234-0.157-0.487-0.373-0.633-0.686c-0.144-0.306-0.215-0.653-0.192-0.981
			c0.026-0.324,0.1-0.631,0.199-0.918c0.443-1.13,1.22-1.961,1.842-2.515C43.496,73.112,44.005,72.856,44.005,72.856z"/>
	</g>
	<g>
		<path d="M50.758,69.488c0,0,0.214,0.289,0.44,0.717c0.234,0.427,0.483,0.996,0.729,1.538c0.059,0.136,0.109,0.278,0.178,0.403
			c0.066,0.127,0.11,0.265,0.177,0.38c0.116,0.246,0.237,0.458,0.355,0.641c0.056,0.1,0.122,0.165,0.179,0.241
			s0.113,0.138,0.167,0.179c0.111,0.104,0.175,0.163,0.175,0.163s-0.082,0.018-0.244,0.024c-0.083,0.006-0.183,0.003-0.288-0.033
			c-0.106-0.03-0.245-0.058-0.357-0.133c-0.251-0.124-0.511-0.333-0.719-0.592c-0.228-0.252-0.388-0.562-0.539-0.87
			c-0.129-0.318-0.236-0.639-0.292-0.95c-0.059-0.31-0.085-0.603-0.079-0.856C50.643,69.833,50.758,69.488,50.758,69.488z"/>
	</g>
	<g>
		<path d="M56.221,59.403c0,0,0.018-0.053,0.122-0.098c0.095-0.044,0.241-0.09,0.428-0.121c0.187-0.032,0.415-0.065,0.675-0.084
			c0.13-0.01,0.268-0.02,0.413-0.03c0.064-0.007,0.161-0.009,0.194-0.017c0.076-0.012,0.152-0.023,0.23-0.036
			c0.627-0.096,1.309-0.253,2.1-0.396c0.779-0.147,1.621-0.275,2.484-0.342c0.43-0.027,0.867-0.034,1.299-0.021
			c0.432,0.002,0.859,0.07,1.273,0.145c0.412,0.097,0.812,0.192,1.166,0.388c0.369,0.144,0.66,0.411,0.928,0.624
			c0.21,0.283,0.449,0.501,0.529,0.775c0.104,0.257,0.211,0.467,0.217,0.665c0.051,0.383,0.066,0.59,0.066,0.59
			s-0.092-0.19-0.254-0.523c-0.055-0.173-0.219-0.332-0.354-0.527c-0.117-0.213-0.379-0.341-0.572-0.538
			c-0.266-0.126-0.515-0.293-0.842-0.374c-0.302-0.12-0.667-0.147-1.023-0.209c-0.369-0.042-0.754-0.048-1.152-0.05
			c-0.396-0.001-0.804,0.018-1.213,0.054c-0.818,0.041-1.646,0.151-2.433,0.215c-0.773,0.07-1.551,0.131-2.188,0.098
			c-0.079-0.003-0.157-0.006-0.233-0.009c-0.117-0.006-0.168-0.018-0.246-0.03c-0.143-0.024-0.278-0.047-0.405-0.068
			c-0.252-0.038-0.472-0.071-0.654-0.099c-0.181-0.02-0.325-0.036-0.42-0.025C56.265,59.358,56.221,59.403,56.221,59.403z"/>
	</g>
	<g>
		<path d="M60.304,63.185c0,0,0.49-0.006,1.181,0.05c0.347,0.025,0.745,0.059,1.166,0.104c0.423,0.03,0.865,0.093,1.307,0.112
			c0.881,0.076,1.743,0.101,2.39,0.013c0.168-0.009,0.303-0.062,0.441-0.08c0.138-0.022,0.25-0.06,0.344-0.096
			c0.199-0.065,0.314-0.103,0.314-0.103s-0.064,0.098-0.203,0.267c-0.068,0.087-0.156,0.192-0.283,0.273
			c-0.123,0.084-0.26,0.215-0.432,0.283c-0.169,0.074-0.355,0.187-0.562,0.233c-0.205,0.056-0.426,0.137-0.654,0.154
			c-0.459,0.082-0.951,0.083-1.434,0.052c-0.967-0.078-1.887-0.358-2.537-0.659C60.687,63.498,60.304,63.185,60.304,63.185z"/>
	</g>
	<g>
		<path d="M36.772,59.283c0,0,0.46-0.229,1.191-0.383c0.365-0.084,0.796-0.143,1.263-0.171c0.467-0.029,0.968-0.009,1.471,0.048
			c0.5,0.079,1.003,0.171,1.455,0.365c0.454,0.168,0.857,0.415,1.153,0.682c0.161,0.111,0.266,0.277,0.366,0.398
			c0.107,0.117,0.168,0.245,0.21,0.354c0.089,0.212,0.125,0.327,0.125,0.327s-0.102-0.073-0.279-0.202
			c-0.078-0.067-0.182-0.135-0.313-0.195c-0.131-0.061-0.251-0.148-0.419-0.2c-0.164-0.054-0.32-0.132-0.514-0.176
			c-0.187-0.052-0.378-0.106-0.589-0.146c-0.204-0.055-0.423-0.079-0.645-0.12c-0.218-0.048-0.45-0.067-0.678-0.097
			c-0.457-0.071-0.923-0.104-1.362-0.16c-0.44-0.042-0.855-0.091-1.216-0.136C37.272,59.386,36.772,59.283,36.772,59.283z"/>
	</g>
	<g>
		<path d="M39.053,63.185c0,0,0.281-0.116,0.667-0.201c0.193-0.046,0.413-0.078,0.643-0.091c0.231-0.02,0.476-0.038,0.719-0.041
			l0.364,0.022c0.119-0.001,0.241,0.043,0.352,0.04c0.222,0.005,0.434,0.03,0.625,0.07c0.377,0.07,0.672,0.2,0.672,0.2
			s-0.208,0.196-0.586,0.367c-0.187,0.091-0.416,0.175-0.666,0.242c-0.247,0.057-0.51,0.047-0.775,0.057
			c-0.264-0.019-0.529-0.016-0.771-0.083c-0.243-0.059-0.466-0.135-0.652-0.218C39.271,63.398,39.053,63.185,39.053,63.185z"/>
	</g>
	<g>
		<path d="M41.634,82.814c0,0,0.238,0.283,0.767,0.616c0.263,0.165,0.588,0.359,0.993,0.514c0.392,0.18,0.866,0.303,1.367,0.464
			c0.521,0.107,1.072,0.254,1.679,0.319c0.597,0.107,1.241,0.125,1.901,0.178c0.661,0.05,1.353,0.002,2.049,0.026
			c0.7-0.038,1.41-0.076,2.121-0.115c0.71-0.072,1.421-0.146,2.12-0.217c0.698-0.099,1.385-0.195,2.05-0.289
			c1.333-0.175,2.563-0.451,3.635-0.603c1.064-0.202,1.952-0.371,2.574-0.488c0.623-0.113,0.985-0.165,0.985-0.165
			s-0.337,0.137-0.934,0.353c-0.601,0.202-1.449,0.536-2.491,0.858c-1.053,0.279-2.271,0.664-3.616,0.912
			c-0.673,0.12-1.363,0.282-2.075,0.379c-0.715,0.085-1.442,0.17-2.169,0.256c-0.733,0.028-1.467,0.057-2.189,0.084
			c-0.726-0.028-1.438-0.037-2.126-0.115c-0.689-0.079-1.352-0.161-1.972-0.322c-0.625-0.113-1.195-0.333-1.72-0.507
			c-0.514-0.221-0.979-0.428-1.359-0.68c-0.391-0.223-0.699-0.478-0.94-0.688C41.799,83.15,41.634,82.814,41.634,82.814z"/>
	</g>
	<g>
		<path d="M44.655,84.675c0,0,0.208,0.428,0.607,0.89c0.109,0.108,0.212,0.231,0.344,0.339c0.12,0.117,0.272,0.209,0.412,0.318
			c0.308,0.184,0.635,0.377,1.013,0.484c0.179,0.076,0.368,0.135,0.563,0.172c0.19,0.049,0.379,0.106,0.572,0.129
			c0.191,0.025,0.373,0.089,0.555,0.102c0.18,0.02,0.352,0.051,0.513,0.081c0.321,0.051,0.597,0.077,0.793,0.119
			c0.196,0.037,0.312,0.067,0.312,0.067s-0.103,0.053-0.289,0.13c-0.187,0.069-0.455,0.189-0.792,0.257
			c-0.338,0.065-0.739,0.144-1.181,0.12c-0.219,0.001-0.451-0.003-0.682-0.06c-0.233-0.034-0.468-0.091-0.699-0.176
			c-0.232-0.073-0.45-0.196-0.665-0.312c-0.214-0.115-0.397-0.285-0.572-0.437c-0.341-0.324-0.565-0.711-0.693-1.051
			C44.514,85.151,44.655,84.675,44.655,84.675z"/>
	</g>
	<g>
		<path d="M61.276,83.767c0,0-0.023,0.334-0.168,0.762c-0.035,0.106-0.123,0.217-0.207,0.333c-0.087,0.115-0.18,0.244-0.293,0.362
			c-0.111,0.122-0.229,0.206-0.358,0.3l-0.396,0.267c-0.29,0.118-0.571,0.268-0.86,0.318c-0.284,0.064-0.552,0.104-0.789,0.094
			c-0.468,0.008-0.784-0.12-0.784-0.12s0.264-0.205,0.635-0.435c0.189-0.11,0.398-0.245,0.629-0.363
			c0.229-0.12,0.457-0.26,0.699-0.375l0.34-0.193c0.103-0.07,0.248-0.106,0.332-0.175c0.088-0.066,0.188-0.116,0.285-0.17
			c0.092-0.062,0.205-0.087,0.292-0.161C60.976,83.916,61.276,83.767,61.276,83.767z"/>
	</g>
	<g>
		<path d="M45.596,93.079c0,0,0.778,0.19,1.918,0.427c1.144,0.225,2.657,0.495,4.169,0.553c0.376-0.001,0.756,0.041,1.125,0.01
			c0.369-0.029,0.738-0.005,1.086-0.065c0.349-0.046,0.695-0.061,1.01-0.138c0.315-0.072,0.632-0.096,0.901-0.189
			c0.273-0.081,0.531-0.146,0.762-0.205c0.222-0.082,0.416-0.154,0.575-0.214c0.331-0.113,0.519-0.178,0.519-0.178
			s-0.146,0.131-0.421,0.351c-0.139,0.107-0.305,0.247-0.508,0.387c-0.212,0.121-0.455,0.259-0.727,0.398
			c-0.266,0.16-0.583,0.252-0.913,0.373c-0.329,0.133-0.689,0.211-1.066,0.285c-0.375,0.091-0.769,0.128-1.17,0.16
			c-0.401,0.044-0.808,0.016-1.216,0.023c-0.811-0.055-1.617-0.156-2.349-0.351c-0.737-0.171-1.397-0.421-1.95-0.655
			C46.236,93.575,45.596,93.079,45.596,93.079z"/>
	</g>
	<g>
		<path d="M88.396,54.845c0.548-0.191,1.136-0.292,1.735-0.295c0.606-0.033,1.223,0.078,1.854,0.273
			c0.301,0.139,0.645,0.217,0.926,0.439c0.291,0.203,0.604,0.397,0.84,0.691c0.258,0.276,0.498,0.571,0.654,0.915
			c0.191,0.334,0.349,0.685,0.416,1.037c0.076,0.349,0.212,0.732,0.201,1.065l0.027,1.044c-0.019,0.333-0.074,0.647-0.123,0.974
			c-0.055,0.319-0.087,0.665-0.186,0.95c-0.18,0.585-0.343,1.214-0.578,1.763c-0.238,0.548-0.494,1.091-0.744,1.638l0.191-0.484
			c-0.205,1.021-0.465,2.05-0.668,3.049c-0.215,1.006-0.455,2.007-0.729,3.006l-0.073,0.302c-0.118,0.301-0.217,0.502-0.329,0.74
			c-0.119,0.224-0.233,0.446-0.361,0.663c-0.248,0.434-0.515,0.857-0.818,1.26c-0.294,0.406-0.623,0.796-0.973,1.164
			c-0.359,0.367-0.734,0.717-1.158,1.024c-0.196,0.164-0.429,0.303-0.653,0.438c-0.221,0.139-0.448,0.266-0.699,0.366
			c-0.247,0.103-0.476,0.22-0.741,0.276l-0.766,0.182c-0.267,0.019-0.524,0.045-0.781,0.043c-0.251,0.023-0.512-0.06-0.755-0.09
			c-0.245-0.035-0.482-0.083-0.707-0.199c-0.226-0.097-0.442-0.19-0.647-0.297l0.683-0.136c0.218-0.031,0.427-0.107,0.626-0.184
			c0.197-0.086,0.396-0.115,0.57-0.243c0.176-0.113,0.351-0.197,0.517-0.291l0.456-0.366c0.152-0.104,0.269-0.286,0.406-0.407
			c0.137-0.124,0.258-0.274,0.372-0.432c0.114-0.156,0.241-0.284,0.343-0.457c0.436-0.627,0.795-1.33,1.112-2.053
			c0.155-0.362,0.304-0.73,0.438-1.103c0.07-0.185,0.127-0.373,0.188-0.559c0.057-0.175,0.125-0.387,0.152-0.509l-0.072,0.302
			c0.141-1.087,0.315-2.173,0.515-3.254c0.178-1.095,0.468-2.124,0.729-3.178l0.062-0.255l0.127-0.229
			c0.24-0.434,0.474-0.871,0.725-1.304c0.26-0.429,0.4-0.861,0.629-1.292c0.125-0.218,0.166-0.422,0.245-0.633l0.226-0.63
			l0.125-0.598c0.072-0.216,0.033-0.37,0.061-0.565c0.035-0.201-0.002-0.363-0.025-0.535c0-0.19-0.062-0.35-0.133-0.516
			c-0.037-0.189-0.162-0.337-0.267-0.512c-0.095-0.184-0.274-0.32-0.417-0.501c-0.168-0.154-0.359-0.303-0.561-0.447
			c-0.217-0.117-0.422-0.288-0.662-0.398c-0.232-0.134-0.479-0.231-0.732-0.35C88.933,55.038,88.673,54.942,88.396,54.845z"/>
	</g>
	<g>
		<path d="M90.677,60.364c-0.035-0.388-0.104-0.771-0.227-1.12c-0.063-0.17-0.139-0.34-0.25-0.459
			c-0.047-0.071-0.112-0.111-0.17-0.154c-0.052-0.057-0.133-0.046-0.188-0.079c-0.132-0.025-0.272-0.012-0.425,0.039
			c-0.072,0.007-0.151,0.065-0.227,0.097c-0.074,0.043-0.15,0.062-0.223,0.121c-0.145,0.107-0.299,0.187-0.438,0.308l-0.421,0.354
			l0.062-0.063c-0.482,0.724-0.953,1.485-1.343,2.258c-0.109,0.19-0.192,0.387-0.278,0.582c-0.079,0.196-0.188,0.39-0.234,0.587
			c-0.053,0.195-0.133,0.393-0.18,0.583l-0.072,0.552l-0.093-0.27c0.405,0.591,0.7,1.189,0.938,1.842
			c0.119,0.323,0.217,0.657,0.289,0.997c0.061,0.345,0.102,0.692,0.1,1.048c0.014,0.175-0.023,0.356-0.04,0.531
			c-0.011,0.177-0.067,0.35-0.119,0.521c-0.044,0.173-0.103,0.34-0.195,0.495c-0.089,0.154-0.147,0.324-0.276,0.45l-0.342,0.395
			l-0.407,0.312c-0.259,0.219-0.597,0.312-0.884,0.459c0.246-0.226,0.526-0.392,0.729-0.639l0.31-0.354l0.225-0.401
			c0.09-0.124,0.102-0.286,0.161-0.42c0.06-0.137,0.086-0.283,0.101-0.432c0.021-0.147,0.05-0.29,0.035-0.442
			c-0.014-0.149,0.013-0.294-0.018-0.444c-0.029-0.298-0.097-0.592-0.18-0.884c-0.098-0.289-0.189-0.58-0.318-0.86
			c-0.25-0.557-0.564-1.118-0.899-1.601l-0.104-0.151l0.012-0.119l0.079-0.791c0.054-0.246,0.136-0.474,0.212-0.708
			c0.066-0.241,0.185-0.442,0.279-0.661c0.1-0.216,0.198-0.431,0.317-0.63c0.449-0.823,0.977-1.568,1.565-2.29l0.041-0.05
			l0.021-0.015l0.508-0.345c0.167-0.114,0.367-0.204,0.549-0.302c0.089-0.051,0.207-0.074,0.308-0.111
			c0.108-0.028,0.2-0.078,0.324-0.083c0.227-0.04,0.479-0.031,0.718,0.06c0.107,0.068,0.236,0.112,0.309,0.213
			c0.084,0.089,0.164,0.178,0.207,0.282c0.115,0.196,0.157,0.405,0.19,0.606C90.779,59.582,90.754,59.98,90.677,60.364z"/>
	</g>
	<g>
		<path d="M89.657,61.444c0.097,0.661,0.131,1.311,0.18,1.951c0.012,0.319,0.047,0.637,0.07,0.941
			c0.012,0.153,0.032,0.301,0.057,0.435c0.018,0.054,0.027,0.143,0.047,0.167c0.008,0.015,0.012,0.037,0.016,0.05
			c-0.004-0.029-0.027-0.058-0.056-0.068l0.151,0.236c0.07,0.292,0.11,0.528,0.125,0.791c0.035,0.258,0.011,0.515-0.013,0.771
			c-0.01,0.256-0.06,0.508-0.13,0.756c-0.059,0.249-0.132,0.493-0.252,0.721c-0.113,0.228-0.209,0.465-0.356,0.669
			c-0.149,0.203-0.315,0.395-0.474,0.584c-0.139,0.205-0.369,0.33-0.558,0.482c-0.2,0.143-0.401,0.277-0.604,0.398
			c0.121-0.217,0.244-0.42,0.367-0.616c0.124-0.194,0.268-0.369,0.346-0.586c0.094-0.205,0.178-0.41,0.279-0.603
			c0.096-0.195,0.121-0.421,0.194-0.62c0.079-0.2,0.114-0.411,0.137-0.624c0.032-0.211,0.081-0.417,0.073-0.632
			c0.018-0.212,0.013-0.423,0-0.633c0.001-0.205-0.035-0.434-0.064-0.599l0.15,0.236c-0.074-0.078-0.143-0.173-0.191-0.27
			c-0.023-0.062-0.041-0.119-0.057-0.181c-0.037-0.129-0.031-0.205-0.047-0.31c-0.012-0.187-0.014-0.362-0.008-0.533
			c0.009-0.342,0.061-0.672,0.105-0.999C89.261,62.708,89.413,62.068,89.657,61.444z"/>
	</g>
	<g>
		<ellipse fill="#20803F" cx="41.592" cy="60.904" rx="1.503" ry="1.475"/>
		<path d="M43.094,60.904c0,0-0.002,0.036-0.007,0.104c-0.011,0.067,0.003,0.171-0.042,0.293c-0.025,0.13-0.091,0.27-0.168,0.438
			c-0.092,0.161-0.225,0.32-0.398,0.483c-0.185,0.141-0.413,0.292-0.695,0.357c-0.08,0.016-0.122,0.042-0.239,0.048l-0.198,0.015
			c-0.119,0.018-0.333-0.025-0.499-0.064c-0.326-0.1-0.642-0.301-0.882-0.595c-0.239-0.32-0.354-0.639-0.374-1.13
			c0.006-0.219,0.135-0.768,0.373-1.029c0.24-0.295,0.555-0.498,0.882-0.596c0.331-0.081,0.66-0.091,0.935-0.003
			c0.251,0.06,0.53,0.222,0.698,0.359c0.174,0.163,0.307,0.323,0.398,0.483c0.077,0.169,0.142,0.309,0.167,0.438
			c0.045,0.122,0.031,0.227,0.042,0.294C43.092,60.868,43.094,60.904,43.094,60.904z M43.094,60.904c0,0-0.005-0.036-0.014-0.104
			c-0.015-0.066-0.007-0.17-0.06-0.287c-0.031-0.123-0.103-0.261-0.21-0.398c-0.116-0.13-0.26-0.262-0.449-0.348
			c-0.209-0.078-0.371-0.126-0.624-0.1c-0.224,0.004-0.43,0.109-0.608,0.216c-0.174,0.127-0.306,0.291-0.407,0.46
			c-0.078,0.224-0.121,0.246-0.137,0.612c0.002,0.094,0.058,0.348,0.135,0.512c0.102,0.17,0.232,0.335,0.408,0.462
			c0.093,0.04,0.13,0.112,0.275,0.144l0.191,0.053c0.011,0.012,0.096,0.012,0.141,0.02c0.222,0.032,0.435-0.026,0.626-0.102
			c0.189-0.086,0.333-0.219,0.449-0.349c0.107-0.138,0.178-0.274,0.209-0.397c0.052-0.117,0.045-0.223,0.06-0.289
			C43.089,60.94,43.094,60.904,43.094,60.904z"/>
	</g>
	<circle stroke="#000000" stroke-miterlimit="10" cx="41.914" cy="60.604" r="0.84"/>
	<circle fill="#FFFFFF" cx="42.475" cy="60.348" r="0.26"/>
	<g>
		<ellipse fill="#20803F" cx="64.085" cy="60.554" rx="1.713" ry="1.682"/>
		<path d="M65.798,60.554c0,0-0.004,0.041-0.01,0.119c-0.012,0.077,0.004,0.194-0.048,0.334c-0.03,0.146-0.104,0.307-0.194,0.496
			c-0.105,0.181-0.258,0.361-0.457,0.542c-0.212,0.155-0.471,0.321-0.788,0.39c-0.089,0.016-0.14,0.044-0.266,0.05l-0.225,0.012
			c-0.138,0.018-0.37-0.034-0.554-0.079c-0.361-0.115-0.708-0.342-0.972-0.669c-0.262-0.331-0.386-0.763-0.413-1.193
			c0.033-0.278,0.02-0.325,0.111-0.608c0.062-0.246,0.183-0.413,0.299-0.587c0.265-0.327,0.61-0.556,0.973-0.67
			c0.367-0.094,0.732-0.111,1.043-0.019c0.287,0.062,0.596,0.238,0.791,0.392c0.199,0.181,0.352,0.361,0.457,0.542
			c0.09,0.189,0.164,0.35,0.193,0.495c0.053,0.139,0.037,0.259,0.049,0.335C65.794,60.513,65.798,60.554,65.798,60.554z
			 M65.798,60.554c0,0-0.006-0.041-0.016-0.119c-0.018-0.075-0.008-0.193-0.067-0.327c-0.036-0.142-0.116-0.298-0.236-0.457
			c-0.13-0.151-0.294-0.304-0.509-0.406c-0.235-0.093-0.428-0.155-0.716-0.132c-0.259-0.002-0.502,0.112-0.716,0.231
			c-0.209,0.143-0.371,0.332-0.496,0.534c-0.039,0.114-0.105,0.225-0.116,0.306c-0.039,0.026-0.044,0.32-0.054,0.37
			c-0.002,0.237,0.07,0.457,0.168,0.678c0.125,0.202,0.287,0.394,0.498,0.536c0.11,0.046,0.165,0.127,0.329,0.158l0.218,0.056
			c0.02,0.012,0.113,0.011,0.168,0.017c0.256,0.03,0.5-0.043,0.719-0.133c0.215-0.104,0.377-0.257,0.508-0.407
			c0.119-0.16,0.199-0.316,0.235-0.457c0.06-0.133,0.05-0.253,0.067-0.329C65.792,60.595,65.798,60.554,65.798,60.554z"/>
	</g>
	<circle stroke="#000000" stroke-miterlimit="10" cx="64.452" cy="60.212" r="0.957"/>
	<circle fill="#FFFFFF" cx="65.092" cy="59.921" r="0.296"/>
	<path fill="none" stroke="#000000" stroke-miterlimit="10" d="M61.686,83.661c-0.274,1.373-1,2.575-2.063,3.47
		c-1.867,1.568-4.303,2.262-6.648,2.746c-1.566,0.324-3.39,0.694-4.969,0.299c-1.888-0.475-2.463-1.531-2.124-3.5"/>
	<g>
		<path d="M50.038,65.345c0,0-0.247-0.738-0.337-1.893c-0.102-1.148-0.037-2.727,0.479-4.238c0.115-0.379,0.301-0.738,0.473-1.094
			c0.161-0.361,0.435-0.663,0.639-0.979c0.262-0.28,0.518-0.552,0.791-0.767c0.296-0.192,0.562-0.391,0.839-0.511
			c0.284-0.108,0.546-0.194,0.773-0.268c0.231-0.063,0.449-0.056,0.617-0.076c0.341-0.025,0.528-0.028,0.528-0.028
			s-0.174,0.08-0.48,0.221c-0.148,0.072-0.336,0.131-0.528,0.241c-0.187,0.127-0.393,0.267-0.618,0.404
			C53,56.516,52.81,56.742,52.583,56.93c-0.203,0.22-0.377,0.49-0.583,0.736c-0.155,0.294-0.344,0.57-0.484,0.89
			c-0.141,0.319-0.294,0.636-0.39,0.984c-0.259,0.666-0.394,1.386-0.548,2.054c-0.125,0.676-0.229,1.316-0.305,1.872
			C50.132,64.594,50.038,65.345,50.038,65.345z"/>
	</g>
	<g>
		<path d="M83.444,78.83c0,0-0.092,1.98-0.228,4.95c-0.083,1.482-0.126,3.213-0.192,5.063c-0.048,1.852-0.123,3.825-0.115,5.797
			c-0.035,1.973,0.012,3.942,0.076,5.787c0.02,0.925,0.098,1.811,0.135,2.658c0.029,0.848,0.154,1.636,0.219,2.373
			c0.062,0.738,0.201,1.397,0.275,1.996c0.043,0.298,0.084,0.576,0.123,0.834c0.059,0.253,0.113,0.485,0.163,0.695
			c0.187,0.848,0.294,1.332,0.294,1.332s-0.175-0.465-0.48-1.279c-0.074-0.206-0.156-0.434-0.245-0.682
			c-0.067-0.254-0.141-0.528-0.219-0.821c-0.146-0.589-0.364-1.248-0.468-1.989c-0.115-0.737-0.298-1.533-0.389-2.385
			c-0.096-0.851-0.248-1.747-0.288-2.68c-0.058-0.933-0.151-1.896-0.157-2.876c-0.029-0.98-0.051-1.976-0.039-2.971
			c0.005-0.995,0.039-1.989,0.075-2.968c0.022-0.979,0.11-1.938,0.163-2.868c0.13-1.859,0.339-3.586,0.511-5.065
			c0.175-1.479,0.394-2.703,0.532-3.561C83.337,79.315,83.444,78.83,83.444,78.83z"/>
	</g>
	<g>
		<path d="M43.613,98.421c0,0-0.638,0.701-1.531,2.078c-0.439,0.688-0.944,1.554-1.323,2.613c-0.345,1.058-0.581,2.353,0.111,3.544
			c0.625,1.21,1.556,2.423,2.631,3.591c1.067,1.183,2.345,2.285,3.735,3.32c0.353,0.252,0.709,0.506,1.068,0.762
			c0.369,0.239,0.756,0.458,1.137,0.69c0.749,0.488,1.581,0.851,2.394,1.259c0.817,0.401,1.697,0.68,2.548,1.029
			c0.881,0.267,1.771,0.524,2.663,0.763c0.909,0.173,1.811,0.383,2.721,0.533c0.918,0.099,1.832,0.196,2.74,0.294
			c0.914,0.016,1.82,0.03,2.717,0.045c0.896,0.002,1.779-0.11,2.65-0.158c0.43-0.038,0.877-0.049,1.283-0.107
			c0.41-0.064,0.83-0.144,1.24-0.223c0.819-0.166,1.619-0.356,2.387-0.58c1.537-0.44,2.959-0.968,4.229-1.55
			c1.255-0.609,2.397-1.2,3.336-1.844c0.485-0.3,0.911-0.618,1.296-0.926c0.399-0.292,0.746-0.583,1.039-0.869
			c0.62-0.539,1.059-1.011,1.352-1.342c0.299-0.325,0.459-0.498,0.459-0.498s-0.146,0.186-0.418,0.533
			c-0.269,0.351-0.66,0.871-1.258,1.447c-0.279,0.308-0.612,0.622-0.998,0.941c-0.371,0.335-0.785,0.685-1.258,1.018
			c-0.914,0.715-2.04,1.387-3.305,2.046c-1.275,0.641-2.707,1.233-4.262,1.741c-1.552,0.478-3.24,1-5.043,1.075
			c-0.889,0.061-1.791,0.186-2.709,0.194c-0.92-0.004-1.852-0.008-2.79-0.013c-0.937-0.089-1.88-0.179-2.826-0.269
			c-0.94-0.145-1.877-0.345-2.817-0.52c-0.921-0.257-1.839-0.534-2.747-0.822c-0.879-0.371-1.784-0.672-2.625-1.097
			c-0.837-0.433-1.691-0.818-2.46-1.332c-0.391-0.245-0.789-0.477-1.167-0.729c-0.368-0.27-0.732-0.536-1.095-0.801
			c-1.437-1.073-2.701-2.274-3.759-3.531c-1.065-1.249-1.975-2.517-2.599-3.841c-0.071-0.162-0.142-0.321-0.211-0.479
			c-0.063-0.204-0.1-0.368-0.147-0.55c-0.063-0.354-0.096-0.716-0.053-1.05c0.039-0.684,0.266-1.278,0.465-1.828
			c0.46-1.079,1.024-1.923,1.51-2.593c0.487-0.67,0.922-1.153,1.221-1.479C43.45,98.591,43.613,98.421,43.613,98.421z"/>
	</g>
	<g>
		<path fill="#522D0F" d="M34.239,46.159c0,0-4.491-3.325-4.731-7.827c0,0,2.161,1.021,3.512,0.9c0,0-7.164-9.064,0.335-15.547
			c0,0,0.715,4.262,2.276,4.622c-0.331-0.076,0.133-3.699,0.188-3.95c0.564-2.543,1.944-5.437,4.039-7.049
			c0.835-0.644,1.797-1.097,2.786-1.45c0.995-0.355,2.607-1.077,3.666-1.004c4.258,0.296,8.493,0.954,12.76,1.234
			c1.869,0.123,3.747,0.205,5.62,0.225c0.492,0.005,1.209-0.147,1.678,0.012c0.928,0.313,1.688,1.085,2.501,1.603
			c0.759,0.482,1.596,0.873,2.397,1.28c1.914,0.974,3.96,1.746,6.053,2.23c1.137,0.263,2.809,0.015,3.807,0.582
			c2.115,1.201,4.08,2.968,5.824,4.653c1.744,1.685,3.428,3.617,4.379,5.874c0.045,0.107,0.088,0.215,0.129,0.321
			c2.16,5.703,0.676,21.201-1.283,22.187c0,0-8.566,0.024-7.424,12.63l-3.299,1.803c0,0-0.295-14.769,3.844-15.729
			c4.14-0.961,0.418-0.243,0.418-0.243l-4.262,0.362c0,0-2.461-5.222-3.902-6.423c0,0-1.861-8.104-0.54-8.644l2.041-0.66
			c0,0-10.805-0.661-13.176-8.104v2.941c0,0-5.613,0.181-7.654,1.621c0,0,1.981-2.161,2.01-2.401c0,0-3.631-0.12-6.573,4.082
			c0,0-7.804,7.264-15.607,4.683l-0.819,0.57L34.239,46.159z"/>
		<path d="M34.239,46.159c-1.238-0.962-2.324-2.122-3.204-3.425c-0.438-0.654-0.797-1.358-1.086-2.092
			c-0.13-0.373-0.26-0.745-0.335-1.135c-0.11-0.381-0.122-0.78-0.178-1.172l-0.018-0.122l0.121,0.053
			c0.552,0.243,1.123,0.458,1.705,0.621c0.292,0.072,0.584,0.16,0.881,0.193c0.148,0.016,0.296,0.053,0.444,0.052h0.442l-0.07,0.162
			c-0.446-0.579-0.833-1.189-1.189-1.82c-0.36-0.629-0.682-1.28-0.952-1.954c-0.148-0.331-0.27-0.673-0.377-1.021
			c-0.12-0.344-0.229-0.69-0.301-1.048c-0.078-0.355-0.186-0.705-0.215-1.07c-0.038-0.362-0.113-0.723-0.119-1.088l-0.008-1.099
			c0.036-0.364,0.093-0.728,0.139-1.091c0.022-0.37,0.178-0.712,0.267-1.067l0.157-0.529c0.064-0.173,0.155-0.333,0.232-0.5
			c0.167-0.328,0.307-0.672,0.497-0.985l0.638-0.899c0.195-0.316,0.465-0.566,0.722-0.828l0.772-0.785l0.298-0.304l0.083,0.441
			c0.162,0.855,0.397,1.713,0.702,2.525c0.159,0.403,0.339,0.796,0.564,1.149c0.116,0.173,0.242,0.331,0.382,0.467
			c0.144,0.131,0.299,0.215,0.457,0.267l-0.117,0.503c-0.185-0.063-0.21-0.17-0.236-0.215c-0.022-0.054-0.034-0.099-0.041-0.136
			c-0.017-0.079-0.024-0.146-0.029-0.214c-0.011-0.134-0.014-0.261-0.013-0.387c0.001-0.252,0.013-0.498,0.029-0.744
			c0.032-0.491,0.078-0.978,0.132-1.464l0.087-0.729c0.019-0.13,0.027-0.226,0.061-0.392l0.09-0.353
			c0.107-0.47,0.26-0.944,0.421-1.418c0.342-0.931,0.732-1.844,1.261-2.688c0.505-0.854,1.124-1.652,1.874-2.324
			c1.528-1.34,3.455-1.979,5.294-2.633c0.472-0.155,0.968-0.276,1.501-0.312c0.568-0.02,0.991,0.074,1.494,0.105l2.902,0.275
			l5.801,0.545l2.89,0.269l2.913,0.109c0.96,0.027,1.968,0.091,2.888,0.09c0.48-0.004,0.938-0.135,1.576,0.033
			c0.295,0.123,0.462,0.21,0.699,0.316l0.671,0.433c0.403,0.299,0.787,0.585,1.169,0.845c0.383,0.223,0.846,0.454,1.264,0.681
			c0.416,0.216,0.891,0.481,1.257,0.657l1.337,0.582l1.336,0.583c0.447,0.183,0.91,0.282,1.363,0.429
			c0.919,0.239,1.811,0.634,2.721,0.661c0.941,0.079,1.967-0.018,3.027,0.497c0.859,0.545,1.66,1.021,2.451,1.665
			c1.577,1.222,3.008,2.534,4.376,3.947c1.337,1.432,2.653,2.986,3.466,4.842c0.125,0.231,0.214,0.44,0.307,0.704
			c0.078,0.232,0.162,0.451,0.229,0.706c0.146,0.5,0.254,0.979,0.344,1.47c0.182,0.978,0.295,1.958,0.373,2.939
			c0.154,1.962,0.16,3.924,0.088,5.882c-0.079,1.957-0.238,3.911-0.521,5.856c-0.143,0.973-0.314,1.943-0.554,2.911
			c-0.124,0.484-0.255,0.968-0.446,1.451c-0.092,0.242-0.201,0.484-0.342,0.729c-0.145,0.239-0.307,0.509-0.684,0.732l-0.076,0.045
			l-0.145,0.008c-0.275,0.016-0.615,0.05-0.922,0.123c-0.315,0.057-0.622,0.161-0.928,0.258c-0.598,0.233-1.191,0.5-1.703,0.892
			c-0.275,0.167-0.504,0.396-0.743,0.61c-0.254,0.2-0.442,0.466-0.653,0.709c-0.224,0.234-0.387,0.517-0.557,0.793
			c-0.179,0.271-0.345,0.55-0.461,0.858c-0.124,0.303-0.284,0.59-0.38,0.905l-0.276,0.951c-0.111,0.311-0.136,0.648-0.196,0.975
			L83.2,63.611l-0.052,1.005c-0.011,0.335-0.05,0.669-0.038,1.006l0.091,2.022l0.013,0.303l-0.246,0.135l-3.304,1.794l-0.647,0.351
			l-0.006-0.729c-0.014-1.725,0.045-3.431,0.166-5.143c0.127-1.71,0.311-3.421,0.648-5.116c0.17-0.848,0.377-1.692,0.663-2.523
			c0.298-0.823,0.634-1.659,1.253-2.379c0.291-0.365,0.7-0.681,1.175-0.865c0.501-0.176,0.853-0.212,1.283-0.329l0.612-0.15
			l0.264-0.074c0.012-0.004,0.002-0.002-0.033,0.017l-0.035,0.025l-0.041,0.036c-0.198,0.004-0.059,0.698,0.133,0.627
			c0.135,0.047,0.146,0.021,0.131,0.028l-0.052,0.006l-0.147,0.021l-1.243,0.22L83.763,53.9l-0.016,0.002l-4.264,0.351l-0.26,0.021
			l-0.111-0.235c-0.534-1.124-1.107-2.242-1.72-3.325c-0.298-0.549-0.632-1.07-0.958-1.595l-0.531-0.746
			c-0.086-0.128-0.193-0.216-0.289-0.326l-0.291-0.317l-0.102-0.109l-0.018-0.085c-0.319-1.457-0.592-2.913-0.793-4.392
			c-0.099-0.74-0.18-1.483-0.205-2.241c-0.01-0.38-0.012-0.762,0.034-1.157c0.028-0.199,0.055-0.398,0.132-0.612
			c0.076-0.198,0.172-0.472,0.512-0.628l0.008-0.003l0.016-0.006l2.043-0.654l0.08,0.637c-1.398-0.119-2.744-0.391-4.08-0.755
			c-0.333-0.091-0.666-0.184-0.992-0.301c-0.326-0.115-0.66-0.207-0.978-0.347c-0.649-0.244-1.276-0.538-1.896-0.854
			c-0.311-0.155-0.602-0.351-0.902-0.524c-0.305-0.168-0.584-0.377-0.863-0.588c-0.277-0.212-0.572-0.4-0.818-0.652l-0.764-0.721
			l-0.67-0.813c-0.242-0.257-0.387-0.586-0.579-0.879c-0.185-0.3-0.374-0.597-0.487-0.933l-0.396-0.978l0.552-0.086l-0.008,2.941
			v0.263l-0.266,0.012c-1.297,0.058-2.607,0.174-3.888,0.396c-0.323,0.043-0.64,0.113-0.955,0.187
			c-0.312,0.079-0.641,0.12-0.938,0.234c-0.303,0.104-0.613,0.193-0.909,0.306l-0.826,0.432l-1.273,0.666l0.939-1.045l1.044-1.161
			l0.509-0.589c0.084-0.099,0.165-0.197,0.239-0.296l0.114-0.147c0.012-0.027,0.027-0.045,0.057-0.065l0.227,0.267
			c-0.295,0.004-0.627,0.042-0.938,0.109c-0.321,0.043-0.625,0.164-0.935,0.255c-0.316,0.078-0.595,0.256-0.895,0.379
			c-0.145,0.073-0.303,0.122-0.434,0.221l-0.41,0.266c-0.269,0.184-0.563,0.334-0.794,0.569l-0.734,0.652
			c-0.256,0.206-0.431,0.492-0.651,0.735l-0.629,0.759l-0.02,0.024l-0.004,0.004c-0.542,0.479-1.104,0.913-1.688,1.326
			c-0.579,0.416-1.178,0.806-1.793,1.166c-0.612,0.364-1.24,0.706-1.888,1.004c-0.326,0.144-0.64,0.315-0.977,0.435l-0.998,0.386
			l-1.023,0.312c-0.337,0.119-0.695,0.162-1.041,0.247c-0.348,0.081-0.697,0.149-1.054,0.177c-0.355,0.034-0.708,0.097-1.064,0.105
			l-1.07,0.002c-0.357,0.012-0.709-0.071-1.063-0.103c-0.354-0.038-0.708-0.081-1.049-0.19l-1.033-0.271l0.039-0.006l-0.823,0.564
			l0.015-0.022L34.239,46.159z M34.239,46.159l0.957-4.623l0.003-0.014l0.012-0.009l0.814-0.576l0.016-0.012l0.023,0.006
			l1.028,0.254c0.339,0.103,0.69,0.14,1.042,0.172c0.352,0.025,0.7,0.103,1.053,0.085l1.057-0.018c0.352-0.015,0.7-0.082,1.05-0.12
			c0.351-0.033,0.696-0.105,1.038-0.191c0.34-0.089,0.692-0.137,1.023-0.26l1.006-0.324l0.98-0.396
			c0.331-0.122,0.639-0.298,0.959-0.444c0.635-0.304,1.25-0.651,1.85-1.021c0.602-0.365,1.188-0.76,1.753-1.18
			c0.567-0.414,1.122-0.858,1.635-1.325l-0.024,0.027l0.636-0.793c0.223-0.254,0.4-0.551,0.663-0.77l0.752-0.689
			c0.237-0.248,0.542-0.411,0.82-0.607l0.426-0.285c0.136-0.104,0.302-0.16,0.453-0.239c0.314-0.136,0.606-0.325,0.939-0.415
			c0.328-0.102,0.647-0.233,0.991-0.286c0.339-0.077,0.673-0.125,1.044-0.134l0.331-0.008l-0.103,0.274
			c-0.035,0.094-0.082,0.19-0.135,0.278l-0.122,0.164c-0.081,0.111-0.165,0.217-0.249,0.317l-0.508,0.606l-1.045,1.178l-0.334-0.38
			l0.919-0.489c0.316-0.123,0.64-0.219,0.96-0.329c0.317-0.122,0.648-0.166,0.973-0.249c0.325-0.077,0.65-0.151,0.98-0.197
			c1.312-0.233,2.627-0.357,3.959-0.423l-0.266,0.274l-0.008-2.941l-0.004-1.433l0.556,1.347l0.378,0.915
			c0.105,0.314,0.287,0.592,0.461,0.872c0.184,0.273,0.316,0.582,0.547,0.822l0.635,0.762l0.727,0.678
			c0.231,0.238,0.518,0.415,0.781,0.616c0.266,0.199,0.533,0.397,0.828,0.557c0.289,0.165,0.566,0.351,0.867,0.498
			c0.598,0.302,1.204,0.582,1.834,0.815c0.308,0.134,0.633,0.221,0.949,0.331c0.316,0.112,0.642,0.2,0.967,0.287
			c1.293,0.347,2.633,0.607,3.953,0.711l1.633,0.13l-1.553,0.507l-2.039,0.665l0.023-0.008c-0.014-0.007-0.094,0.093-0.135,0.232
			c-0.049,0.134-0.074,0.304-0.096,0.47c-0.037,0.339-0.036,0.698-0.023,1.057c0.027,0.72,0.109,1.447,0.211,2.171
			c0.204,1.448,0.483,2.898,0.805,4.326l-0.119-0.193l0.352,0.371c0.112,0.126,0.246,0.245,0.338,0.378l0.566,0.788
			c0.342,0.54,0.689,1.077,0.994,1.633c0.632,1.103,1.212,2.222,1.764,3.366l-0.371-0.214l4.26-0.374l-0.04,0.006l1.271-0.231
			l0.169-0.025l0.107-0.01c0.011,0.004,0.05-0.021,0.21,0.029c0.191-0.067,0.332,0.63,0.133,0.638
			c-0.053,0.052-0.028,0.025-0.047,0.041l-0.053,0.035c-0.047,0.025-0.07,0.032-0.07,0.032c-0.15,0.053-0.238,0.073-0.35,0.104
			l-0.627,0.158c-0.391,0.106-0.889,0.189-1.188,0.308c-0.312,0.126-0.61,0.339-0.847,0.642c-0.499,0.577-0.82,1.354-1.091,2.124
			c-0.266,0.781-0.461,1.595-0.621,2.417c-0.319,1.646-0.492,3.33-0.607,5.016c-0.11,1.685-0.16,3.386-0.137,5.066L79.241,69.1
			l3.294-1.812l-0.233,0.438l-0.104-2.099c-0.015-0.35,0.023-0.703,0.033-1.055l0.05-1.055l0.16-1.052
			c0.062-0.349,0.088-0.704,0.205-1.045l0.295-1.031c0.104-0.342,0.275-0.664,0.412-0.997c0.128-0.338,0.309-0.651,0.508-0.957
			c0.189-0.31,0.371-0.624,0.621-0.895c0.237-0.277,0.451-0.575,0.737-0.809c0.271-0.246,0.532-0.504,0.845-0.699
			c0.583-0.447,1.255-0.759,1.934-1.024c0.348-0.113,0.695-0.231,1.056-0.3c0.362-0.084,0.71-0.129,1.12-0.149l-0.221,0.053
			c0.127-0.075,0.4-0.535,0.54-0.939c0.164-0.421,0.296-0.876,0.413-1.332c0.232-0.918,0.405-1.863,0.55-2.812
			c0.288-1.899,0.454-3.825,0.543-5.751c0.081-1.927,0.085-3.858-0.056-5.773c-0.166-1.912-0.362-3.828-1.146-5.526
			c-0.746-1.731-1.973-3.203-3.27-4.606c-1.325-1.387-2.764-2.716-4.253-3.881c-0.71-0.597-1.58-1.123-2.357-1.623
			c-0.71-0.365-1.709-0.345-2.687-0.411c-1.051-0.047-1.972-0.464-2.926-0.72c-0.47-0.154-0.963-0.27-1.412-0.457l-1.334-0.589
			l-1.333-0.589c-0.507-0.25-0.878-0.466-1.323-0.7c-0.434-0.238-0.844-0.441-1.297-0.709c-0.422-0.29-0.814-0.587-1.19-0.869
			l-0.548-0.366l-0.625-0.291c-0.312-0.102-0.841-0.021-1.325-0.005c-1.022-0.005-1.956-0.073-2.938-0.106l-2.914-0.124
			l-2.915-0.286l-5.807-0.576l-2.901-0.291c-0.466-0.033-1.006-0.132-1.411-0.11c-0.436,0.026-0.895,0.13-1.346,0.276
			c-1.805,0.628-3.663,1.245-5.088,2.48c-0.701,0.62-1.293,1.373-1.78,2.188c-0.51,0.802-0.893,1.686-1.225,2.574
			c-0.154,0.446-0.304,0.896-0.416,1.374l-0.092,0.353l-0.051,0.328l-0.09,0.718c-0.056,0.479-0.104,0.96-0.137,1.439
			c-0.017,0.238-0.029,0.478-0.031,0.712c-0.002,0.117,0.001,0.233,0.008,0.342c0.004,0.054,0.01,0.107,0.019,0.146
			c-0.023,0.047,0.1,0.071-0.111-0.043l-0.116,0.504c-0.272-0.081-0.502-0.221-0.689-0.395c-0.182-0.175-0.33-0.366-0.461-0.565
			c-0.252-0.4-0.441-0.822-0.606-1.248c-0.315-0.858-0.534-1.73-0.691-2.627l0.382,0.137l-0.752,0.744
			c-0.251,0.248-0.516,0.484-0.706,0.783l-0.625,0.852c-0.187,0.297-0.323,0.623-0.488,0.934c-0.076,0.158-0.167,0.311-0.23,0.475
			l-0.156,0.504c-0.089,0.339-0.247,0.663-0.271,1.018l-0.15,1.048l-0.009,1.061c0,0.354,0.069,0.705,0.1,1.058
			c0.023,0.355,0.123,0.699,0.194,1.047c0.065,0.351,0.167,0.691,0.279,1.03c0.1,0.342,0.214,0.68,0.355,1.008
			c0.254,0.667,0.562,1.314,0.908,1.939c0.34,0.627,0.718,1.241,1.143,1.81l0.123,0.165l-0.193-0.003l-0.472-0.007
			c-0.157-0.001-0.308-0.041-0.462-0.06c-0.308-0.041-0.603-0.134-0.899-0.212c-0.59-0.176-1.16-0.4-1.718-0.656l0.103-0.069
			c0.05,0.385,0.055,0.776,0.157,1.153c0.068,0.384,0.191,0.754,0.313,1.123c0.274,0.729,0.62,1.434,1.045,2.09
			C31.95,44.003,33.017,45.178,34.239,46.159z"/>
	</g>
</g>
<g id="Layer_3">
	<path opacity="0.2" fill="#FFFFFF" d="M41.394,32.69c0,0-6.783-7.684-0.84-12.847c0,0-0.96,2.461-0.3,3.122
		c0,0,2.822-4.743,4.683-5.343C44.936,17.623,38.933,25.906,41.394,32.69z"/>
	<path opacity="0.2" fill="#FFFFFF" d="M43.975,31.789c0,0,0.48-9.063,3.362-11.825C47.337,19.963,41.574,23.565,43.975,31.789z"/>
	<path opacity="0.2" fill="#FFFFFF" d="M46.557,34.31c0,0,4.202-3.782,4.622-9.484c0,0,0.54,2.461,0.36,3.241
		c0,0,1.441-3.781,1.441-5.522C52.979,22.544,54.48,32.57,46.557,34.31z"/>
	<path opacity="0.2" fill="#FFFFFF" d="M73.449,34.31c0,0-5.042-2.581-5.583-9.725c0,0-0.721,4.202-0.3,5.282
		c0,0-1.261-1.74-1.381-2.581C66.186,27.287,67.866,34.491,73.449,34.31z"/>
	<path opacity="0.2" fill="#FFFFFF" d="M77.411,39.953c0,0,1.561,5.463,4.383,7.864c0,0,0.359,3.361,0,3.661
		C81.794,51.478,76.811,46.496,77.411,39.953z"/>
	<path opacity="0.2" fill="#FFFFFF" d="M38.114,35.511c0,0-5.003-3.902-5.424-8.404c0,0-0.84,3.661-0.54,5.103
		c0,0-1.141-0.961-1.261-1.861c0,0,0.043,7.084,7.225,7.384c0,0-2.362-1.801-2.422-2.401C35.691,35.331,36.815,36.171,38.114,35.511
		z"/>
	<g>
		<path fill="#E4E4E6" d="M46.256,82.213c0,0,0.067,0.271,0.2,0.496c0.072,0.113,0.157,0.182,0.236,0.221
			c0.041,0.023,0.089,0.032,0.143,0.056c0.04,0.03,0.126,0.036,0.184,0.061c0.144,0.047,0.31,0.077,0.482,0.123
			c0.169,0.043,0.344,0.08,0.495,0.141c0.308,0.082,0.542,0.224,0.542,0.224s-0.18,0.191-0.495,0.349
			c-0.161,0.069-0.353,0.142-0.575,0.168c-0.221,0.036-0.47,0.014-0.731-0.045c-0.133-0.061-0.259-0.093-0.388-0.186
			c-0.131-0.073-0.234-0.196-0.326-0.32c-0.176-0.262-0.194-0.562-0.138-0.76C45.996,82.333,46.256,82.213,46.256,82.213z"/>
	</g>
	<path fill="none" d="M20.565,110.316c0,0,40.833,42.513,82.5-1.396"/>
	<text transform="matrix(0.8183 0.5747 -0.5747 0.8183 27.3013 116.0889)"><tspan x="0" y="0" font-family="'MyriadPro-Regular'" font-size="7">C</tspan><tspan x="4.187" y="-0.023" font-family="'MyriadPro-Regular'" font-size="7" rotate="-2.557">r</tspan><tspan x="6.594" y="-0.119" font-family="'MyriadPro-Regular'" font-size="7" rotate="-4.952">e</tspan><tspan x="10.249" y="-0.442" font-family="'MyriadPro-Regular'" font-size="7" rotate="-7.931">a</tspan><tspan x="13.728" y="-0.941" font-family="'MyriadPro-Regular'" font-size="7" rotate="-10.523">t</tspan><tspan x="16.142" y="-1.377" font-family="'MyriadPro-Regular'" font-size="7" rotate="-13.3">e</tspan><tspan x="19.772" y="-2.234" font-family="'MyriadPro-Regular'" font-size="7" rotate="-17.118">d</tspan><tspan x="23.663" y="-3.468" font-family="'MyriadPro-Regular'" font-size="7" rotate="-20.034"> </tspan><tspan x="25.229" y="-4.011" font-family="'MyriadPro-Regular'" font-size="7" rotate="-23.042">B</tspan><tspan x="28.932" y="-5.604" font-family="'MyriadPro-Regular'" font-size="7" rotate="-27.286">y</tspan><tspan x="31.983" y="-7.209" font-family="'MyriadPro-Regular'" font-size="7" rotate="-30.23">:</tspan><tspan x="33.321" y="-7.99" font-family="'MyriadPro-Regular'" font-size="7" rotate="-32.095"> </tspan><tspan x="34.766" y="-8.856" font-family="'MyriadPro-Regular'" font-size="7" rotate="-35.699">C</tspan><tspan x="38.28" y="-11.4" font-family="'MyriadPro-Regular'" font-size="7" rotate="-40.947">h</tspan><tspan x="41.341" y="-14.104" font-family="'MyriadPro-Regular'" font-size="7" rotate="-45.02">r</tspan><tspan x="43.049" y="-15.827" font-family="'MyriadPro-Regular'" font-size="7" rotate="-47.6">i</tspan><tspan x="44.278" y="-17.16" font-family="'MyriadPro-Regular'" font-size="7" rotate="-50.487">s</tspan><tspan x="46.11" y="-19.408" font-family="'MyriadPro-Regular'" font-size="7" rotate="-53.168"> </tspan><tspan x="47.114" y="-20.718" font-family="'MyriadPro-Regular'" font-size="7" rotate="-56.131">L</tspan><tspan x="49.064" y="-23.633" font-family="'MyriadPro-Regular'" font-size="7" rotate="-60.13">e</tspan><tspan x="50.911" y="-26.871" font-family="'MyriadPro-Regular'" font-size="7" rotate="-63.949">a</tspan><tspan x="52.435" y="-30.028" font-family="'MyriadPro-Regular'" font-size="7" rotate="-66.866">t</tspan><tspan x="53.428" y="-32.313" font-family="'MyriadPro-Regular'" font-size="7" rotate="-69.871">h</tspan><tspan x="54.808" y="-36.118" font-family="'MyriadPro-Regular'" font-size="7" rotate="-73.092">a</tspan><tspan x="55.884" y="-39.554" font-family="'MyriadPro-Regular'" font-size="7" rotate="-76.806">m</tspan><tspan x="57.194" y="-45.379" font-family="'MyriadPro-Regular'" font-size="7" rotate="-79.443"> </tspan></text>
</g>
</svg>
